<svg width="142" height="142" viewBox="0 0 142 142" fill="none" xmlns="http://www.w3.org/2000/svg">
<g clip-path="url(#clip0_31_102)">
<path d="M0 71C1.67806 80.1235 3.14433 89.2795 4.8224 98.4029C10.0847 106.044 15.5262 113.554 20.7884 121.195C28.4293 126.458 35.9399 131.899 43.5808 137.161C52.7042 138.839 61.8603 140.306 70.9837 141.984C80.1072 140.306 89.2632 138.839 98.3866 137.161C106.028 131.899 113.538 126.458 121.179 121.195C126.441 113.554 131.883 106.044 137.145 98.4029C138.823 89.2795 140.289 80.1235 141.967 71C140.289 61.8765 138.823 52.7205 137.145 43.5971C131.883 35.9562 126.441 28.4456 121.179 20.8047C113.538 15.5424 106.028 10.101 98.3866 4.83869C89.2795 3.14433 80.1235 1.67806 71 0C61.8765 1.67806 52.7205 3.14433 43.5971 4.8224C35.9562 10.0847 28.4456 15.5262 20.8047 20.7884C15.5424 28.4293 10.101 35.9399 4.83869 43.5808C3.14433 52.7042 1.67806 61.8765 0 71ZM11.5184 95.6333C10.0195 87.4385 8.68357 79.1948 7.20101 71C8.68357 62.7889 10.0195 54.5615 11.5184 46.3667C16.2593 39.5078 21.1306 32.7467 25.8878 25.8878C32.7467 21.1469 39.5078 16.2593 46.3667 11.5184C54.5615 10.0195 62.8052 8.68357 71 7.20101C79.2111 8.68357 87.4385 10.0195 95.6333 11.5184C102.492 16.2593 109.253 21.1306 116.112 25.8878C120.853 32.7467 125.741 39.5078 130.482 46.3667C131.98 54.5615 133.316 62.8052 134.799 71C133.3 79.1948 131.964 87.4385 130.465 95.6333C125.724 102.492 120.853 109.253 116.096 116.112C109.237 120.853 102.476 125.741 95.617 130.482C87.4222 131.98 79.1785 133.316 70.9837 134.799C62.7726 133.316 54.5452 131.98 46.3504 130.482C39.4915 125.741 32.7304 120.869 25.8715 116.112C21.1469 109.253 16.2593 102.492 11.5184 95.6333Z" fill="#0D0D0D" fill-opacity="0.05"/>
<path d="M63.0654 71.0001C63.2121 72.0265 63.3587 73.0691 63.5216 74.0955C64.1407 74.9264 64.7598 75.7736 65.3952 76.6045C66.2261 77.2236 67.0569 77.8589 67.9041 78.478C68.9305 78.6247 69.9732 78.7876 70.9996 78.9342C72.026 78.7876 73.0686 78.641 74.095 78.478C74.9259 77.8589 75.7731 77.2399 76.604 76.6045C77.2231 75.7736 77.8585 74.9427 78.4775 74.0955C78.6242 73.0691 78.7871 72.0265 78.9337 71.0001C78.7871 69.9737 78.6405 68.931 78.4775 67.9046C77.8585 67.0737 77.2394 66.2265 76.604 65.3957C75.7731 64.7766 74.9422 64.1412 74.095 63.5221C73.0686 63.3755 72.026 63.2125 70.9996 63.0659C69.9732 63.2125 68.9305 63.3592 67.9041 63.5221C67.0732 64.1412 66.2261 64.7603 65.3952 65.3957C64.7761 66.2265 64.1407 67.0574 63.5216 67.9046C63.375 68.931 63.2121 69.9574 63.0654 71.0001ZM69.6636 71.554C69.6311 71.3748 69.6148 71.1793 69.5822 71.0001C69.6148 70.8209 69.6311 70.6254 69.6636 70.4461C69.7777 70.2995 69.8917 70.1529 70.0058 69.99C70.1524 69.8759 70.299 69.7619 70.4619 69.6641C70.6412 69.6315 70.8367 69.6153 71.0159 69.5827C71.1951 69.6153 71.3906 69.6315 71.5698 69.6641C71.7164 69.7782 71.863 69.8922 72.026 69.99C72.14 70.1366 72.2541 70.2832 72.3518 70.4461C72.3844 70.6254 72.4007 70.8209 72.4333 71.0001C72.4007 71.1793 72.3844 71.3748 72.3518 71.554C72.2378 71.7006 72.1237 71.8472 72.026 72.0102C71.8793 72.1242 71.7327 72.2382 71.5698 72.3523C71.3906 72.3849 71.1951 72.4012 71.0159 72.4337C70.8367 72.4012 70.6412 72.3849 70.4619 72.3523C70.3153 72.2382 70.1687 72.1242 70.0058 72.0102C69.8754 71.8472 69.7777 71.7006 69.6636 71.554Z" fill="#0D0D0D" fill-opacity="0.05"/>
<path d="M17.4326 71.0001C18.6708 77.8915 19.8112 84.7993 21.0494 91.6907C25.0572 97.4418 29.1302 103.128 33.1217 108.879C38.8727 112.87 44.5586 116.959 50.3096 120.951C57.2011 122.189 64.1088 123.313 71.0003 124.568C77.8918 123.33 84.7995 122.189 91.691 120.951C97.442 116.943 103.128 112.87 108.879 108.879C112.87 103.128 116.96 97.4418 120.951 91.6907C122.189 84.7993 123.314 77.8915 124.568 71.0001C123.33 64.1086 122.189 57.2008 120.951 50.3094C116.943 44.5583 112.87 38.8725 108.879 33.1214C103.128 29.1299 97.442 25.0407 91.691 21.0492C84.7995 19.811 77.8918 18.6868 71.0003 17.4324C64.1088 18.6706 57.2011 19.811 50.3096 21.0492C44.5586 25.057 38.8727 29.1299 33.1217 33.1214C29.1302 38.8725 25.0409 44.5583 21.0494 50.3094C19.8112 57.2008 18.6871 64.1086 17.4326 71.0001ZM54.9202 77.6471C54.5781 75.4314 54.2523 73.2157 53.9427 70.9838C54.2523 68.7681 54.5781 66.5361 54.9202 64.3204C56.2399 62.512 57.5758 60.7036 58.928 58.9115C60.7201 57.5593 62.5122 56.2233 64.3369 54.9037C66.5526 54.5616 68.7683 54.2357 71.0003 53.9262C73.216 54.2357 75.448 54.5616 77.6637 54.9037C79.4721 56.2233 81.2805 57.5593 83.0726 58.9115C84.4248 60.7036 85.7607 62.4957 87.0804 64.3204C87.4225 66.5361 87.7483 68.7518 88.0579 70.9838C87.7483 73.1995 87.4225 75.4314 87.0804 77.6471C85.7607 79.4555 84.4248 81.2639 83.0726 83.056C81.2805 84.4083 79.4884 85.7442 77.6637 87.0638C75.448 87.406 73.2323 87.7318 71.0003 88.0414C68.7846 87.7318 66.5526 87.406 64.3369 87.0638C62.5285 85.7442 60.7201 84.4083 58.928 83.056C57.5921 81.2639 56.2561 79.4555 54.9202 77.6471ZM38.4003 72.3523C38.3677 72.1242 38.384 72.1405 38.4165 72.4174C38.4654 72.7596 38.4654 72.727 38.4003 72.3197C38.4003 72.336 38.4003 72.336 38.4003 72.3523ZM48.9085 94.998C48.7293 94.8676 48.7456 94.8676 48.9737 95.0469C49.2506 95.2587 49.2181 95.2424 48.8922 94.9817L48.9085 94.998ZM72.3525 103.584C72.1244 103.616 72.1407 103.6 72.4177 103.568C72.7598 103.519 72.7272 103.519 72.3199 103.584C72.3362 103.584 72.3362 103.584 72.3525 103.584ZM94.9982 93.0918C94.8679 93.271 94.8679 93.2547 95.0471 93.0267C95.2589 92.7497 95.2426 92.7823 94.9819 93.1081L94.9982 93.0918ZM103.584 69.6478C103.617 69.8759 103.617 69.8596 103.568 69.5827C103.519 69.2405 103.519 69.2731 103.584 69.6804C103.584 69.6641 103.584 69.6478 103.584 69.6478ZM93.0921 47.0021C93.2713 47.1325 93.255 47.1325 93.0269 46.9532C92.7499 46.7415 92.7825 46.7577 93.1084 47.0184C93.1084 47.0021 93.0921 47.0021 93.0921 47.0021ZM69.6481 38.4C69.8762 38.3674 69.8599 38.3837 69.5666 38.4163C69.2245 38.4652 69.2571 38.4652 69.6644 38.4H69.6481ZM47.0024 48.9083C47.1327 48.7291 47.1327 48.7454 46.9535 48.9734C46.7417 49.2504 46.758 49.2178 47.0187 48.892C47.0024 48.892 47.0024 48.9083 47.0024 48.9083ZM38.4003 69.6804C38.4491 69.2731 38.4654 69.2242 38.4165 69.5827C38.384 69.8596 38.384 69.8759 38.4003 69.6478C38.4003 69.6478 38.4003 69.6641 38.4003 69.6804ZM47.0187 93.1081C46.758 92.7823 46.7417 92.7497 46.9535 93.0267C47.1327 93.2547 47.1327 93.271 47.0024 93.0918C47.0024 93.0918 47.0024 93.1081 47.0187 93.1081ZM69.6807 103.584C69.2734 103.535 69.2245 103.519 69.5829 103.568C69.8599 103.6 69.8762 103.6 69.6644 103.584C69.6481 103.584 69.6644 103.584 69.6807 103.584ZM93.1084 94.9817C92.7825 95.2424 92.7499 95.2587 93.0269 95.0469C93.255 94.8676 93.2713 94.8676 93.0921 94.998L93.1084 94.9817ZM103.584 72.3197C103.535 72.727 103.519 72.7759 103.568 72.4174C103.6 72.1405 103.6 72.1242 103.584 72.3523C103.584 72.336 103.584 72.336 103.584 72.3197ZM94.9819 48.892C95.2426 49.2178 95.2589 49.2504 95.0471 48.9734C94.8679 48.7454 94.8679 48.7291 94.9982 48.9083L94.9819 48.892ZM72.3199 38.4C72.7272 38.4489 72.7761 38.4652 72.4177 38.4163C72.1407 38.3837 72.1244 38.3837 72.3525 38.4C72.3362 38.4 72.3362 38.4 72.3199 38.4ZM48.8922 47.0184C49.2181 46.7577 49.2506 46.7415 48.9737 46.9532C48.7456 47.1325 48.7293 47.1325 48.9085 47.0021C48.9085 47.0021 48.8922 47.0021 48.8922 47.0184ZM38.5632 71.0001C38.4817 71.2118 38.4328 71.4399 38.4003 71.6843C38.3514 71.9287 38.3677 72.1731 38.4165 72.4174C38.4165 72.6129 38.4654 72.7922 38.5469 72.9714C38.7424 73.395 38.8727 73.7208 39.2149 74.0466C39.9806 74.7961 40.9744 74.8612 41.9845 74.7798C44.5097 74.5354 46.8883 73.623 49.2506 72.7759C49.5276 74.7635 49.8209 76.7511 50.1141 78.7387C44.0372 79.6673 34.8649 80.433 33.9852 72.9225C33.9037 72.2382 33.9037 71.6029 33.9852 71.0163C33.9037 70.4298 33.9037 69.7944 33.9852 69.1102C34.8649 61.5996 44.0372 62.3654 50.1141 63.294C49.8046 65.2816 49.5276 67.2692 49.2506 69.2568C46.872 68.4096 44.5097 67.4973 41.9845 67.2529C40.9744 67.1552 39.9806 67.2366 39.2149 67.9861C38.8727 68.3119 38.7424 68.6377 38.5469 69.0613C38.4654 69.2405 38.4165 69.4197 38.4165 69.6152C38.3677 69.8596 38.3514 70.104 38.4003 70.3484C38.4328 70.5602 38.4817 70.7883 38.5632 71.0001ZM48.0613 48.0611C47.8495 48.1588 47.654 48.2729 47.4585 48.4358C47.2467 48.5661 47.0838 48.7454 46.9535 48.9571C46.8232 49.1038 46.7091 49.2504 46.6602 49.4296C46.5136 49.8695 46.367 50.179 46.367 50.6678C46.3833 51.7268 47.035 52.4925 47.817 53.1442C49.772 54.7571 52.1017 55.7834 54.3663 56.875C53.1607 58.4716 51.9551 60.0845 50.7658 61.6974C45.8131 58.0643 38.7913 52.1178 43.467 46.1712C43.8906 45.6336 44.3468 45.1937 44.8193 44.8353C45.1777 44.3628 45.6176 43.9067 46.1552 43.4831C52.0854 38.791 58.032 45.8291 61.6813 50.7818C60.0685 51.9711 58.4556 53.1605 56.859 54.3823C55.7837 52.1015 54.7573 49.788 53.1281 47.833C52.4764 47.051 51.7107 46.3993 50.6517 46.383C50.1793 46.383 49.8534 46.5134 49.4136 46.6763C49.2344 46.7415 49.0714 46.8392 48.9411 46.9695C48.7293 47.0999 48.5664 47.2628 48.4198 47.4746C48.2731 47.6538 48.1591 47.8493 48.0613 48.0611ZM71.0003 38.5629C70.7885 38.4815 70.5604 38.4326 70.316 38.4C70.0717 38.3511 69.8273 38.3674 69.5829 38.4163C69.3874 38.4163 69.2082 38.4652 69.029 38.5466C68.6054 38.7421 68.2796 38.8725 67.9537 39.2146C67.2043 39.9803 67.1391 40.9741 67.2206 41.9842C67.465 44.5095 68.3773 46.8881 69.2245 49.2504C67.2369 49.5274 65.2493 49.8206 63.2617 50.1139C62.333 44.037 61.5673 34.8647 69.0779 33.9849C69.7621 33.9035 70.3975 33.9035 70.984 33.9849C71.5705 33.9035 72.2059 33.9035 72.8902 33.9849C80.4007 34.8647 79.635 44.037 78.7064 50.1139C76.7187 49.8043 74.7311 49.5274 72.7435 49.2504C73.5907 46.8718 74.5031 44.5095 74.7474 41.9842C74.8452 40.9741 74.7637 39.9803 74.0143 39.2146C73.6885 38.8725 73.3626 38.7421 72.939 38.5466C72.7598 38.4652 72.5806 38.4163 72.3851 38.4163C72.1407 38.3674 71.8963 38.3511 71.652 38.4C71.4402 38.4326 71.2121 38.4815 71.0003 38.5629ZM93.9393 48.0611C93.8415 47.8493 93.7275 47.6538 93.5645 47.4583C93.4342 47.2465 93.255 47.0836 93.0432 46.9532C92.8966 46.8229 92.7499 46.7089 92.5707 46.66C92.1309 46.5134 91.8213 46.3667 91.3326 46.3667C90.2736 46.383 89.5079 47.0347 88.8562 47.8167C87.2433 49.7717 86.2169 52.1015 85.1254 54.366C83.5287 53.1604 81.9159 51.9549 80.303 50.7655C83.936 45.8128 89.8826 38.791 95.8291 43.4668C96.3667 43.8904 96.8066 44.3465 97.165 44.819C97.6375 45.1774 98.0937 45.6173 98.5173 46.1549C103.209 52.0852 96.1712 58.0317 91.2185 61.6811C90.0292 60.0682 88.8236 58.4553 87.618 56.8587C89.8989 55.7834 92.2123 54.7571 94.1673 53.1279C94.9493 52.4762 95.601 51.7268 95.6173 50.6515C95.6173 50.179 95.487 49.8532 95.3241 49.4133C95.2589 49.2341 95.1611 49.0712 95.0308 48.9409C94.9005 48.7291 94.7213 48.5661 94.5258 48.4195C94.3303 48.2729 94.151 48.1588 93.9393 48.0611ZM103.437 71.0001C103.519 70.7883 103.568 70.5602 103.6 70.3158C103.649 70.0714 103.633 69.827 103.584 69.5827C103.584 69.3872 103.535 69.2079 103.454 69.0287C103.258 68.6051 103.128 68.2793 102.786 67.9535C102.02 67.204 101.026 67.1389 100.016 67.2203C97.4909 67.4647 95.1123 68.3771 92.7499 69.2242C92.473 67.2366 92.1797 65.249 91.8865 63.2614C97.9633 62.3328 107.136 61.5671 108.015 69.0776C108.097 69.7619 108.097 70.3973 108.015 70.9838C108.097 71.5703 108.097 72.2057 108.015 72.8899C107.136 80.4005 97.9633 79.6347 91.8865 78.7061C92.196 76.7185 92.473 74.7309 92.7499 72.7433C95.1286 73.5905 97.4909 74.5028 100.016 74.7472C101.026 74.8449 102.02 74.7635 102.786 74.014C103.128 73.6882 103.258 73.3624 103.454 72.9388C103.535 72.7596 103.584 72.5804 103.584 72.3849C103.633 72.1405 103.649 71.8961 103.6 71.6517C103.568 71.4399 103.519 71.2118 103.437 71.0001ZM93.9393 93.939C94.151 93.8413 94.3465 93.7272 94.5421 93.5643C94.7538 93.434 94.9168 93.2548 95.0471 93.043C95.1774 92.8963 95.2915 92.7497 95.3404 92.5705C95.487 92.1306 95.6336 91.8211 95.6336 91.3323C95.6173 90.2733 94.9656 89.5076 94.1836 88.8559C92.2286 87.243 89.8989 86.2167 87.6343 85.1251C88.8399 83.5285 90.0455 81.9156 91.2348 80.3027C96.1875 83.9358 103.209 89.8823 98.5336 95.8289C98.11 96.3665 97.6538 96.8064 97.1813 97.1648C96.8229 97.6373 96.383 98.0934 95.8454 98.517C89.9152 103.209 83.9686 96.171 80.3192 91.2183C81.9321 90.029 83.545 88.8397 85.1416 87.6178C86.2169 89.8986 87.2433 92.2121 88.8725 94.1671C89.5242 94.9491 90.2899 95.6008 91.3488 95.6171C91.8213 95.6171 92.1471 95.4867 92.587 95.3238C92.7662 95.2587 92.9292 95.1609 93.0595 95.0306C93.2713 94.9002 93.4342 94.721 93.5808 94.5255C93.7112 94.33 93.8415 94.1508 93.9393 93.939ZM71.0003 103.437C71.2121 103.519 71.4402 103.568 71.6846 103.6C71.9289 103.649 72.1733 103.633 72.4177 103.584C72.6132 103.584 72.7924 103.535 72.9716 103.453C73.3952 103.258 73.721 103.128 74.0469 102.785C74.7963 102.02 74.8615 101.026 74.78 100.016C74.5356 97.4906 73.6233 95.112 72.7761 92.7497C74.7637 92.4727 76.7513 92.1795 78.7389 91.8862C79.6676 97.9631 80.4333 107.135 72.9227 108.015C72.2385 108.097 71.6031 108.097 71.0166 108.015C70.4301 108.097 69.7947 108.097 69.1104 108.015C61.5999 107.135 62.3656 97.9631 63.2942 91.8862C65.2818 92.1958 67.2695 92.4727 69.2571 92.7497C68.4099 95.1283 67.4975 97.4906 67.2532 100.016C67.1554 101.026 67.2369 102.02 67.9863 102.785C68.3121 103.128 68.638 103.258 69.0616 103.453C69.2408 103.535 69.42 103.584 69.6155 103.584C69.8599 103.633 70.1042 103.649 70.3486 103.6C70.5604 103.568 70.7885 103.519 71.0003 103.437ZM48.0613 93.939C48.1591 94.1508 48.2731 94.3463 48.4361 94.5418C48.5664 94.7536 48.7456 94.9165 48.9574 95.0469C49.104 95.1772 49.2506 95.2912 49.4299 95.3401C49.8697 95.4867 50.1793 95.6334 50.668 95.6334C51.727 95.6171 52.4927 94.9654 53.1444 94.1834C54.7573 92.2284 55.7837 89.8986 56.8752 87.6341C58.4718 88.8397 60.0847 90.0452 61.6976 91.2346C58.0645 96.1873 52.118 103.209 46.1715 98.5333C45.6338 98.1097 45.194 97.6536 44.8355 97.1811C44.3631 96.8227 43.9069 96.3828 43.4833 95.8452C38.7913 89.9149 45.8294 83.9684 50.7821 80.319C51.9714 81.9319 53.177 83.5448 54.3826 85.1414C52.1017 86.2167 49.7883 87.243 47.8333 88.8722C47.0512 89.5239 46.3996 90.2896 46.3833 91.3486C46.3833 91.8211 46.5136 92.1469 46.6765 92.5868C46.7417 92.766 46.8395 92.9289 46.9698 93.0592C47.1001 93.271 47.2793 93.434 47.4748 93.5806C47.654 93.7109 47.8495 93.8413 48.0613 93.939ZM27.9735 71.0001C27.8594 71.9776 27.892 73.0365 28.0712 74.1933C29.2279 81.1988 35.2722 83.0723 41.6586 83.1538C37.1947 87.7318 34.2458 93.3199 38.384 99.1035C39.0682 100.048 39.8014 100.814 40.5671 101.433C41.1699 102.199 41.9519 102.932 42.8968 103.616C48.6804 107.755 54.2685 104.806 58.8466 100.342C58.928 106.728 60.8016 112.772 67.8071 113.929C68.9638 114.125 70.0228 114.141 71.0003 114.027C71.9778 114.141 73.0368 114.108 74.1935 113.929C81.199 112.772 83.0726 106.728 83.154 100.342C87.732 104.806 93.3202 107.755 99.1038 103.616C100.049 102.932 100.814 102.199 101.434 101.433C102.199 100.83 102.932 100.048 103.617 99.1035C107.755 93.3199 104.806 87.7318 100.342 83.1538C106.728 83.0723 112.773 81.1988 113.929 74.1933C114.125 73.0365 114.141 71.9776 114.027 71.0001C114.141 70.0225 114.109 68.9636 113.929 67.8068C112.773 60.8013 106.728 58.9278 100.342 58.8463C104.806 54.2683 107.755 48.6802 103.617 42.8966C102.932 41.9516 102.199 41.1859 101.434 40.5668C100.831 39.8011 100.049 39.068 99.1038 38.3837C93.3202 34.2456 87.732 37.1944 83.154 41.6584C83.0726 35.272 81.199 29.2277 74.1935 28.071C73.0368 27.8755 71.9778 27.8592 71.0003 27.9732C70.0228 27.8592 68.9638 27.8918 67.8071 28.071C60.8016 29.2277 58.928 35.272 58.8466 41.6584C54.2685 37.1944 48.6804 34.2456 42.8968 38.3837C41.9519 39.068 41.1862 39.8011 40.5671 40.5668C39.8014 41.1696 39.0682 41.9516 38.384 42.8966C34.2458 48.6802 37.1947 54.2683 41.6586 58.8463C35.2722 58.9278 29.2279 60.8013 28.0712 67.8068C27.892 68.9636 27.8594 70.0225 27.9735 71.0001ZM25.2364 89.9475C24.1123 83.6425 23.0696 77.305 21.9455 71.0001C23.0696 64.6788 24.1123 58.3576 25.2364 52.0526C28.9021 46.7903 32.6329 41.5769 36.2986 36.3147C41.5609 32.649 46.7743 28.9181 52.0366 25.2525C58.3415 24.1283 64.6791 23.0857 70.984 21.9615C77.3053 23.0857 83.6265 24.1283 89.9315 25.2525C95.1937 28.9181 100.407 32.649 105.669 36.3147C109.335 41.5769 113.066 46.7903 116.732 52.0526C117.856 58.3576 118.898 64.6951 120.023 71.0001C118.898 77.305 117.856 83.6425 116.732 89.9475C113.066 95.2098 109.335 100.423 105.669 105.685C100.407 109.351 95.1937 113.082 89.9315 116.748C83.6265 117.872 77.289 118.914 70.984 120.039C64.6628 118.914 58.3415 117.872 52.0366 116.748C46.7743 113.082 41.5609 109.351 36.2986 105.685C32.6492 100.423 28.9021 95.2098 25.2364 89.9475Z" fill="#0D0D0D" fill-opacity="0.05"/>
</g>
<defs>
<clipPath id="clip0_31_102">
<rect width="142" height="142" fill="white"/>
</clipPath>
</defs>
</svg>
